<?xml version="1.0" standalone="no"?>
<!DOCTYPE svg PUBLIC "-//W3C//DTD SVG 20010904//EN"
 "http://www.w3.org/TR/2001/REC-SVG-20010904/DTD/svg10.dtd">
<svg version="1.0" xmlns="http://www.w3.org/2000/svg"
 width="1280.000000pt" height="1269.000000pt" viewBox="0 0 1280.000000 1269.000000"
 preserveAspectRatio="xMidYMid meet">
<metadata>
Created by potrace 1.15, written by Peter Selinger 2001-2017
</metadata>
<g transform="translate(0.000000,1269.000000) scale(0.100000,-0.100000)"
fill="#000000" stroke="none">
<path d="M5764 12519 c-70 -8 -239 -49 -292 -71 -15 -6 -31 -10 -36 -9 -4 1
-14 -3 -21 -9 -9 -7 -64 -11 -149 -11 -80 1 -137 -3 -141 -9 -3 -5 -26 -10
-50 -10 -24 0 -46 -4 -49 -9 -3 -5 -23 -12 -43 -15 -102 -19 -305 -101 -330
-135 -7 -9 -13 -12 -13 -7 0 6 -7 1 -15 -10 -8 -10 -15 -16 -15 -12 0 4 -12
-4 -26 -17 -14 -13 -51 -38 -81 -55 -31 -18 -66 -41 -78 -53 -12 -12 -33 -28
-46 -36 -44 -26 -157 -121 -173 -146 -9 -13 -16 -34 -16 -45 0 -30 -19 -59
-72 -108 -27 -25 -48 -50 -48 -56 0 -6 -13 -26 -29 -44 -17 -17 -27 -32 -23
-32 4 0 0 -6 -8 -13 -8 -7 -22 -25 -30 -42 -8 -16 -20 -34 -26 -40 -6 -5 -37
-66 -68 -135 -32 -69 -63 -126 -67 -128 -5 -2 -9 -10 -9 -18 0 -8 -5 -14 -11
-14 -5 0 -8 -4 -4 -10 3 -5 -3 -18 -15 -30 -11 -11 -20 -24 -20 -30 0 -5 -4
-10 -10 -10 -5 0 -10 -6 -10 -13 0 -7 -8 -22 -17 -33 -42 -46 -102 -148 -109
-187 -4 -16 -1 -16 36 3 22 11 40 24 40 28 0 4 14 13 32 21 53 24 87 -20 54
-71 -24 -37 -44 -126 -57 -242 -16 -159 -3 -228 52 -276 10 -8 19 -24 21 -35
2 -11 6 -22 9 -25 3 -3 25 -44 48 -91 32 -66 44 -104 51 -167 10 -87 25 -126
65 -166 14 -14 25 -27 25 -29 0 -3 16 -30 35 -62 41 -68 79 -167 96 -250 7
-33 16 -65 21 -72 6 -7 10 -34 10 -60 0 -26 4 -53 9 -59 5 -7 10 -60 10 -120
0 -60 5 -114 10 -120 6 -7 10 -42 10 -78 0 -36 4 -66 8 -66 5 0 11 -19 15 -42
3 -24 15 -86 27 -138 55 -257 74 -334 85 -345 7 -7 10 -15 7 -19 -4 -3 -1 -6
5 -6 7 0 12 -5 12 -11 0 -15 162 -342 177 -357 7 -8 11 -17 8 -21 -2 -5 3 -17
13 -27 9 -11 26 -37 37 -59 11 -22 48 -81 83 -133 34 -52 62 -96 62 -98 0 -3
11 -17 25 -32 14 -15 25 -30 25 -35 0 -8 11 -22 41 -56 8 -9 23 -28 32 -42 19
-27 77 -94 155 -177 29 -31 52 -65 52 -77 0 -20 -27 -55 -43 -55 -3 0 -18 -5
-34 -12 -15 -6 -37 -13 -47 -15 -11 -2 -24 -7 -30 -11 -6 -5 -27 -9 -46 -11
-19 -2 -36 -7 -38 -12 -5 -12 -55 -12 -68 1 -5 5 -25 10 -44 11 -19 1 -45 6
-57 12 -16 7 -30 7 -45 0 -26 -13 -49 -20 -62 -21 -5 0 -12 -5 -15 -11 -4 -6
-119 -26 -256 -46 -316 -44 -301 -41 -343 -81 -20 -19 -46 -34 -58 -34 -13 0
-29 -6 -36 -13 -14 -13 -140 -56 -243 -82 -116 -29 -200 -63 -241 -96 -6 -5
-13 -6 -17 -3 -3 3 -10 -4 -17 -15 -6 -12 -16 -21 -23 -21 -6 0 -23 -11 -37
-24 -27 -27 -260 -260 -425 -426 -153 -154 -161 -160 -209 -160 -33 0 -48 6
-69 28 -15 15 -27 31 -27 35 0 4 -30 38 -67 76 -96 99 -170 125 -227 80 -27
-21 -77 -108 -83 -144 -2 -11 -8 -24 -13 -29 -6 -6 -10 -25 -10 -42 0 -18 -4
-35 -9 -38 -15 -10 -12 -212 4 -243 8 -15 12 -30 9 -35 -3 -5 -1 -15 5 -21 15
-18 20 -86 8 -94 -16 -10 -58 -10 -63 -1 -6 10 -48 11 -58 1 -3 -4 -16 -8 -27
-10 -12 -2 -34 -12 -49 -23 -16 -11 -31 -20 -35 -20 -10 0 -24 -18 -100 -132
-36 -54 -65 -102 -65 -107 0 -5 -5 -11 -10 -13 -6 -2 -20 -39 -31 -83 -11 -44
-35 -105 -53 -135 -26 -43 -35 -69 -38 -118 -3 -40 -10 -67 -18 -72 -8 -5 -11
-12 -8 -16 8 -8 -40 -99 -86 -162 -17 -24 -41 -57 -54 -75 -13 -18 -29 -34
-35 -36 -35 -12 -227 -186 -227 -206 0 -6 -8 -15 -19 -22 -28 -18 -67 -91 -85
-163 -21 -81 -54 -137 -112 -192 -44 -42 -169 -128 -185 -128 -18 0 -119 -104
-119 -122 0 -21 -41 -88 -53 -88 -5 0 -21 -9 -35 -20 -40 -31 -222 -211 -222
-220 0 -4 -16 -22 -35 -39 -20 -17 -33 -31 -31 -31 3 0 -19 -33 -48 -74 -42
-58 -58 -93 -80 -172 -16 -54 -33 -110 -39 -124 -6 -14 -12 -35 -13 -48 -2
-13 -8 -30 -15 -38 -6 -7 -9 -20 -6 -28 3 -7 0 -24 -7 -38 -7 -13 -13 -41 -14
-63 -1 -21 -6 -41 -11 -44 -5 -4 -11 -22 -13 -41 -2 -27 -8 -36 -25 -38 -22
-3 -23 -7 -23 -122 0 -115 1 -119 23 -122 19 -3 22 -10 25 -58 2 -30 8 -57 13
-61 5 -3 10 -48 10 -100 0 -51 5 -96 10 -100 5 -3 10 -46 10 -95 0 -49 4 -91
9 -94 5 -3 10 -28 11 -55 2 -41 11 -63 48 -118 25 -38 51 -76 56 -85 12 -18
44 -59 63 -78 6 -7 12 -16 12 -20 0 -4 9 -16 21 -28 11 -12 41 -45 66 -74 29
-34 65 -62 99 -77 29 -13 56 -30 61 -38 17 -28 219 -116 338 -147 66 -17 128
-36 137 -41 10 -5 36 -9 58 -9 22 0 40 -4 40 -9 0 -5 39 -10 87 -10 50 0 89
-5 91 -11 5 -13 79 -13 87 0 3 5 28 10 56 10 28 0 49 5 49 11 0 6 12 9 28 7
21 -2 28 -9 30 -29 4 -33 -107 -481 -121 -490 -5 -4 -7 -14 -4 -22 3 -8 0 -25
-7 -38 -6 -13 -13 -40 -14 -59 -2 -19 -6 -37 -10 -40 -5 -3 -9 -20 -10 -39 -2
-19 -7 -40 -13 -47 -12 -15 -28 -236 -29 -401 l0 -123 5039 0 5038 0 7 37 c3
21 11 180 16 353 5 173 12 332 16 353 7 44 30 62 94 72 49 8 70 18 116 55 43
34 80 63 139 107 156 116 407 361 439 428 9 19 20 36 25 39 4 3 8 20 9 37 0
18 5 35 9 38 5 3 10 19 11 34 1 16 5 34 9 40 4 7 8 14 8 17 1 3 8 21 17 41 9
20 37 104 63 185 26 82 50 154 54 159 4 6 8 26 10 45 1 19 6 37 12 41 6 3 9
19 8 35 -2 18 7 44 23 69 40 59 52 151 45 334 -6 165 -34 401 -48 401 -5 0 -6
7 -3 15 4 8 1 22 -6 30 -6 8 -12 35 -12 60 0 25 -4 45 -9 45 -18 0 -9 67 11
85 12 10 18 25 16 32 -3 7 -1 13 4 13 6 0 10 35 10 80 0 44 -4 80 -9 80 -4 0
-6 11 -3 25 2 14 -1 31 -7 38 -6 7 -11 29 -12 48 -2 19 -6 39 -11 45 -4 6 -9
24 -9 40 -1 16 -8 43 -15 59 -7 17 -34 95 -59 174 -42 134 -45 150 -39 213 7
71 -13 318 -26 318 -4 0 -5 11 -2 25 2 14 -1 32 -8 40 -6 8 -12 37 -12 65 1
27 -3 50 -9 50 -5 0 -9 22 -9 48 0 26 -4 52 -9 58 -5 5 -19 56 -30 113 -34
164 -102 435 -112 445 -5 6 -9 24 -9 42 0 18 -4 34 -9 36 -5 2 -11 17 -13 33
-1 17 -6 32 -9 35 -4 3 -8 19 -10 35 -2 17 -6 35 -10 40 -4 6 -14 44 -23 85
-23 100 -86 290 -97 290 -5 0 -9 8 -9 18 0 10 -4 22 -9 28 -5 5 -11 20 -13 34
-1 14 -6 27 -10 30 -4 3 -9 15 -11 25 -2 11 -9 31 -14 45 -6 14 -27 64 -47
112 -41 98 -65 140 -151 260 -54 75 -237 286 -386 443 -31 33 -72 78 -90 100
-36 41 -62 68 -302 311 -160 162 -236 234 -248 234 -4 0 -21 14 -39 30 -18 17
-34 30 -37 30 -2 0 -31 18 -63 40 -32 22 -63 40 -69 40 -5 0 -11 4 -13 8 -6
14 -66 52 -81 52 -9 0 -17 4 -19 9 -4 11 -180 104 -433 230 -99 49 -199 103
-222 119 -39 29 -42 36 -64 127 -12 53 -28 103 -36 110 -17 18 -78 35 -123 35
-60 0 -190 -42 -190 -62 0 -4 -9 -8 -20 -8 -11 0 -20 -4 -20 -10 0 -5 -8 -10
-18 -10 -18 0 -98 -61 -143 -110 -34 -37 -89 -44 -314 -43 -236 1 -345 16
-466 63 -54 21 -112 41 -129 45 -16 4 -30 11 -30 16 0 5 -15 9 -34 9 -19 0
-38 5 -41 10 -3 6 -41 10 -84 10 -42 0 -81 4 -87 9 -5 5 -20 11 -34 13 -23 3
-55 39 -109 125 -27 43 -51 122 -51 169 0 17 -2 33 -5 36 -7 7 -8 438 -1 459
2 8 7 57 10 109 6 100 18 177 61 405 14 77 30 185 36 240 6 55 15 106 22 113
9 11 26 13 73 8 49 -5 66 -3 77 9 9 8 19 15 24 15 4 0 20 11 35 25 15 14 32
25 38 25 5 0 10 4 10 9 0 5 -35 17 -77 27 -68 15 -84 23 -127 64 -47 45 -48
48 -48 103 0 53 13 87 33 87 5 0 18 9 29 20 11 11 29 20 40 20 37 0 21 38 -81
183 -38 54 -69 101 -69 105 0 4 -9 15 -20 25 -27 23 -26 71 1 90 20 15 20 15
-22 98 -23 46 -47 87 -53 91 -6 4 -7 8 -2 8 6 0 1 7 -10 15 -10 8 -14 15 -9
15 6 0 4 4 -3 9 -7 4 -15 14 -16 22 -2 8 -13 37 -26 64 -37 80 -40 225 -5 225
8 0 15 4 15 9 0 6 19 11 41 13 l42 3 -55 58 c-30 31 -60 57 -67 57 -6 0 -11 3
-11 8 0 6 -17 28 -70 90 -11 13 -20 29 -20 36 0 7 -5 17 -11 23 -6 6 -12 17
-13 24 -5 24 -25 72 -52 122 -35 65 -28 95 23 99 l37 3 -95 75 c-104 84 -244
183 -271 193 -10 4 -18 11 -18 17 0 5 -7 10 -15 10 -8 0 -15 5 -15 11 0 5 -5
7 -10 4 -6 -3 -13 1 -16 9 -3 9 -10 14 -14 11 -5 -3 -19 4 -32 15 -12 10 -70
50 -128 89 -58 38 -147 108 -198 155 -73 67 -100 86 -123 86 -16 0 -29 4 -29
9 0 6 -23 10 -50 9 -28 0 -57 5 -64 11 -8 7 -18 11 -22 10 -5 -1 -16 1 -24 4
-56 24 -206 68 -260 76 -74 12 -202 12 -306 0z"/>
</g>
</svg>
